<svg xmlns="http://www.w3.org/2000/svg" viewBox="0 0 480 480" fill="none" stroke="currentColor" stroke-width="1">
<path d="M 266.0,232.0 L 266.2,233.0 L 266.4,233.9 L 266.5,234.9 L 266.6,235.9 L 266.7,236.9 L 266.7,237.9 L 266.6,238.9 L 266.5,240.0 L 266.3,241.0 L 266.1,242.0 L 265.9,243.0 L 265.5,244.0 L 265.2,245.0 L 264.7,245.9 L 264.3,246.9 L 263.7,247.8 L 263.1,248.7 L 262.5,249.5 L 261.8,250.3 L 261.1,251.1 L 260.3,251.8 L 259.5,252.5 L 258.7,253.1 L 257.8,253.7 L 256.9,254.3 L 255.9,254.7 L 255.0,255.2 L 254.0,255.5 L 253.0,255.9 L 252.0,256.1 L 251.0,256.3 L 250.0,256.5 L 248.9,256.6 L 247.9,256.7 L 246.9,256.7 L 245.9,256.6 L 244.9,256.5 L 243.9,256.4 L 243.0,256.2 L 242.0,256.0 L 241.1,255.7 L 240.2,255.5 L 239.3,255.1 L 238.4,254.8 L 237.5,254.4 L 236.7,254.0 L 235.9,253.6 L 235.1,253.1 L 234.4,252.7 L 233.6,252.2 L 232.9,251.7 L 232.2,251.2 L 231.5,250.7 L 230.9,250.2 L 230.2,249.7 L 229.6,249.1 L 228.9,248.6 L 228.3,248.0 L 227.7,247.4 L 227.2,246.8 L 226.6,246.3 L 226.0,245.7 L 225.4,245.1 L 224.9,244.4 L 224.3,243.8 L 223.8,243.1 L 223.3,242.5 L 222.8,241.8 L 222.3,241.1 L 221.8,240.4 L 221.3,239.6 L 220.9,238.9 L 220.4,238.1 L 220.0,237.3 L 219.6,236.5 L 219.2,235.6 L 218.9,234.7 L 218.5,233.8 L 218.3,232.9 L 218.0,232.0 L 217.8,231.0 L 217.6,230.1 L 217.5,229.1 L 217.4,228.1 L 217.3,227.1 L 217.3,226.1 L 217.4,225.1 L 217.5,224.0 L 217.7,223.0 L 217.9,222.0 L 218.1,221.0 L 218.5,220.0 L 218.8,219.0 L 219.3,218.1 L 219.7,217.1 L 220.3,216.2 L 220.9,215.3 L 221.5,214.5 L 222.2,213.7 L 222.9,212.9 L 223.7,212.2 L 224.5,211.5 L 225.3,210.9 L 226.2,210.3 L 227.1,209.7 L 228.1,209.3 L 229.0,208.8 L 230.0,208.5 L 231.0,208.1 L 232.0,207.9 L 233.0,207.7 L 234.0,207.5 L 235.1,207.4 L 236.1,207.3 L 237.1,207.3 L 238.1,207.4 L 239.1,207.5 L 240.1,207.6 L 241.0,207.8 L 242.0,208.0 L 242.9,208.3 L 243.8,208.5 L 244.7,208.9 L 245.6,209.2 L 246.5,209.6 L 247.3,210.0 L 248.1,210.4 L 248.9,210.9 L 249.6,211.3 L 250.4,211.8 L 251.1,212.3 L 251.8,212.8 L 252.5,213.3 L 253.1,213.8 L 253.8,214.3 L 254.4,214.9 L 255.1,215.4 L 255.7,216.0 L 256.3,216.6 L 256.8,217.2 L 257.4,217.7 L 258.0,218.3 L 258.6,218.9 L 259.1,219.6 L 259.7,220.2 L 260.2,220.9 L 260.7,221.5 L 261.2,222.2 L 261.7,222.9 L 262.2,223.6 L 262.7,224.4 L 263.1,225.1 L 263.6,225.9 L 264.0,226.7 L 264.4,227.5 L 264.8,228.4 L 265.1,229.3 L 265.5,230.2 L 265.7,231.1 L 266.0,232.0 Z"/>
<path d="M 287.8,232.0 L 288.1,233.8 L 288.3,235.6 L 288.5,237.5 L 288.5,239.4 L 288.4,241.2 L 288.1,243.1 L 287.8,244.9 L 287.3,246.7 L 286.8,248.5 L 286.0,250.2 L 285.2,251.9 L 284.3,253.6 L 283.3,255.1 L 282.2,256.6 L 280.9,258.0 L 279.7,259.4 L 278.3,260.6 L 276.9,261.8 L 275.4,262.9 L 273.8,263.8 L 272.3,264.8 L 270.7,265.6 L 269.1,266.4 L 267.5,267.0 L 265.8,267.7 L 264.2,268.2 L 262.6,268.7 L 260.9,269.2 L 259.3,269.6 L 257.7,270.0 L 256.1,270.3 L 254.6,270.7 L 253.0,271.0 L 251.4,271.3 L 249.9,271.5 L 248.3,271.8 L 246.7,272.1 L 245.2,272.3 L 243.6,272.5 L 242.0,272.8 L 240.4,273.0 L 238.8,273.1 L 237.1,273.3 L 235.4,273.4 L 233.8,273.5 L 232.0,273.5 L 230.3,273.5 L 228.5,273.4 L 226.8,273.2 L 225.0,273.0 L 223.2,272.7 L 221.5,272.3 L 219.7,271.8 L 218.0,271.2 L 216.2,270.6 L 214.6,269.8 L 212.9,268.9 L 211.3,267.9 L 209.8,266.8 L 208.4,265.6 L 207.0,264.3 L 205.7,263.0 L 204.5,261.5 L 203.5,260.0 L 202.5,258.4 L 201.6,256.8 L 200.8,255.1 L 200.2,253.3 L 199.6,251.5 L 199.2,249.7 L 198.9,247.9 L 198.6,246.1 L 198.5,244.3 L 198.5,242.4 L 198.5,240.6 L 198.6,238.9 L 198.8,237.1 L 199.1,235.4 L 199.4,233.7 L 199.8,232.0 L 200.2,230.4 L 200.6,228.7 L 201.1,227.2 L 201.6,225.6 L 202.1,224.1 L 202.6,222.5 L 203.1,221.0 L 203.6,219.5 L 204.2,218.1 L 204.7,216.6 L 205.3,215.1 L 205.9,213.6 L 206.5,212.1 L 207.1,210.6 L 207.8,209.1 L 208.5,207.6 L 209.2,206.1 L 209.9,204.6 L 210.8,203.1 L 211.6,201.6 L 212.6,200.1 L 213.5,198.7 L 214.6,197.2 L 215.7,195.9 L 216.9,194.5 L 218.2,193.2 L 219.6,192.0 L 221.0,190.8 L 222.5,189.7 L 224.1,188.7 L 225.7,187.8 L 227.4,187.0 L 229.1,186.3 L 230.9,185.7 L 232.7,185.2 L 234.5,184.9 L 236.4,184.7 L 238.3,184.6 L 240.1,184.6 L 242.0,184.8 L 243.8,185.0 L 245.7,185.4 L 247.5,185.9 L 249.2,186.5 L 250.9,187.2 L 252.6,187.9 L 254.2,188.8 L 255.7,189.7 L 257.2,190.7 L 258.7,191.7 L 260.1,192.8 L 261.4,193.9 L 262.7,195.0 L 263.9,196.2 L 265.1,197.4 L 266.3,198.6 L 267.4,199.8 L 268.5,201.0 L 269.6,202.2 L 270.6,203.4 L 271.6,204.6 L 272.6,205.8 L 273.7,207.0 L 274.7,208.3 L 275.6,209.5 L 276.6,210.8 L 277.6,212.1 L 278.6,213.4 L 279.6,214.7 L 280.5,216.1 L 281.4,217.5 L 282.3,218.9 L 283.2,220.4 L 284.0,221.9 L 284.8,223.5 L 285.6,225.1 L 286.2,226.8 L 286.8,228.5 L 287.3,230.2 L 287.8,232.0 Z"/>
<path d="M 309.7,232.0 L 309.8,234.7 L 309.8,237.3 L 309.7,240.0 L 309.4,242.7 L 309.0,245.3 L 308.5,248.0 L 307.8,250.6 L 307.0,253.1 L 306.1,255.7 L 305.1,258.1 L 303.9,260.6 L 302.7,262.9 L 301.3,265.2 L 299.8,267.4 L 298.2,269.6 L 296.5,271.6 L 294.8,273.6 L 292.9,275.5 L 291.0,277.2 L 288.9,278.9 L 286.9,280.5 L 284.7,282.0 L 282.5,283.4 L 280.3,284.7 L 278.0,285.9 L 275.7,286.9 L 273.3,287.9 L 270.9,288.8 L 268.5,289.6 L 266.1,290.3 L 263.7,290.9 L 261.3,291.3 L 258.9,291.8 L 256.4,292.1 L 254.0,292.3 L 251.6,292.5 L 249.2,292.5 L 246.8,292.5 L 244.4,292.4 L 242.0,292.3 L 239.6,292.1 L 237.3,291.8 L 235.0,291.4 L 232.7,291.0 L 230.4,290.5 L 228.1,290.0 L 225.8,289.4 L 223.6,288.7 L 221.4,288.0 L 219.2,287.2 L 217.0,286.3 L 214.8,285.4 L 212.7,284.4 L 210.5,283.3 L 208.5,282.2 L 206.4,281.0 L 204.3,279.8 L 202.3,278.4 L 200.4,277.0 L 198.4,275.6 L 196.5,274.0 L 194.7,272.4 L 192.9,270.7 L 191.1,269.0 L 189.4,267.1 L 187.8,265.2 L 186.2,263.2 L 184.8,261.2 L 183.3,259.0 L 182.0,256.9 L 180.8,254.6 L 179.6,252.3 L 178.6,249.9 L 177.6,247.5 L 176.8,245.0 L 176.0,242.4 L 175.4,239.9 L 174.9,237.3 L 174.5,234.7 L 174.3,232.0 L 174.2,229.3 L 174.2,226.7 L 174.3,224.0 L 174.6,221.3 L 175.0,218.7 L 175.5,216.0 L 176.2,213.4 L 177.0,210.9 L 177.9,208.3 L 178.9,205.9 L 180.1,203.4 L 181.3,201.1 L 182.7,198.8 L 184.2,196.6 L 185.8,194.4 L 187.5,192.4 L 189.2,190.4 L 191.1,188.5 L 193.0,186.8 L 195.1,185.1 L 197.1,183.5 L 199.3,182.0 L 201.5,180.6 L 203.7,179.3 L 206.0,178.1 L 208.3,177.1 L 210.7,176.1 L 213.1,175.2 L 215.5,174.4 L 217.9,173.7 L 220.3,173.1 L 222.7,172.7 L 225.1,172.2 L 227.6,171.9 L 230.0,171.7 L 232.4,171.5 L 234.8,171.5 L 237.2,171.5 L 239.6,171.6 L 242.0,171.7 L 244.4,171.9 L 246.7,172.2 L 249.0,172.6 L 251.3,173.0 L 253.6,173.5 L 255.9,174.0 L 258.2,174.6 L 260.4,175.3 L 262.6,176.0 L 264.8,176.8 L 267.0,177.7 L 269.2,178.6 L 271.3,179.6 L 273.5,180.7 L 275.5,181.8 L 277.6,183.0 L 279.7,184.2 L 281.7,185.6 L 283.6,187.0 L 285.6,188.4 L 287.5,190.0 L 289.3,191.6 L 291.1,193.3 L 292.9,195.0 L 294.6,196.9 L 296.2,198.8 L 297.8,200.8 L 299.2,202.8 L 300.7,205.0 L 302.0,207.1 L 303.2,209.4 L 304.4,211.7 L 305.4,214.1 L 306.4,216.5 L 307.2,219.0 L 308.0,221.6 L 308.6,224.1 L 309.1,226.7 L 309.5,229.3 L 309.7,232.0 Z"/>
<path d="M 331.1,232.0 L 331.0,235.5 L 330.8,239.0 L 330.3,242.4 L 329.6,245.9 L 328.7,249.3 L 327.7,252.6 L 326.4,255.8 L 325.0,259.0 L 323.4,262.0 L 321.7,265.0 L 319.9,267.9 L 317.9,270.7 L 315.8,273.3 L 313.6,275.9 L 311.3,278.3 L 309.0,280.7 L 306.6,282.9 L 304.1,285.0 L 301.6,287.1 L 299.0,289.0 L 296.5,290.9 L 293.9,292.7 L 291.2,294.5 L 288.6,296.1 L 285.9,297.8 L 283.3,299.3 L 280.6,300.8 L 277.8,302.3 L 275.1,303.7 L 272.3,305.1 L 269.5,306.5 L 266.6,307.8 L 263.7,309.0 L 260.8,310.2 L 257.8,311.3 L 254.7,312.4 L 251.6,313.3 L 248.5,314.2 L 245.3,315.0 L 242.0,315.6 L 238.7,316.2 L 235.3,316.6 L 232.0,316.8 L 228.5,316.9 L 225.1,316.9 L 221.7,316.6 L 218.3,316.2 L 214.8,315.6 L 211.5,314.8 L 208.1,313.8 L 204.8,312.6 L 201.6,311.3 L 198.5,309.7 L 195.4,308.0 L 192.5,306.1 L 189.7,304.0 L 187.0,301.7 L 184.5,299.3 L 182.1,296.8 L 179.9,294.1 L 177.8,291.3 L 175.9,288.5 L 174.1,285.5 L 172.5,282.5 L 171.0,279.4 L 169.7,276.3 L 168.6,273.1 L 167.5,269.9 L 166.7,266.7 L 165.9,263.5 L 165.2,260.3 L 164.7,257.1 L 164.2,253.9 L 163.9,250.8 L 163.6,247.6 L 163.3,244.5 L 163.2,241.3 L 163.1,238.2 L 163.1,235.1 L 163.1,232.0 L 163.2,228.9 L 163.3,225.8 L 163.4,222.7 L 163.7,219.6 L 164.0,216.5 L 164.3,213.3 L 164.7,210.2 L 165.2,207.1 L 165.8,203.9 L 166.5,200.7 L 167.3,197.6 L 168.2,194.4 L 169.2,191.2 L 170.3,188.1 L 171.6,185.0 L 173.0,181.9 L 174.6,178.9 L 176.3,175.9 L 178.2,173.0 L 180.2,170.2 L 182.4,167.5 L 184.8,165.0 L 187.2,162.5 L 189.8,160.2 L 192.6,158.1 L 195.5,156.1 L 198.5,154.3 L 201.6,152.6 L 204.7,151.2 L 208.0,149.9 L 211.3,148.9 L 214.7,148.0 L 218.1,147.3 L 221.6,146.8 L 225.0,146.5 L 228.4,146.4 L 231.9,146.5 L 235.3,146.7 L 238.7,147.1 L 242.0,147.6 L 245.3,148.3 L 248.5,149.1 L 251.7,150.0 L 254.8,151.0 L 257.9,152.1 L 260.9,153.3 L 263.9,154.5 L 266.8,155.8 L 269.6,157.2 L 272.4,158.6 L 275.2,160.1 L 277.9,161.6 L 280.6,163.1 L 283.2,164.7 L 285.9,166.4 L 288.5,168.0 L 291.1,169.8 L 293.6,171.6 L 296.2,173.4 L 298.7,175.3 L 301.2,177.3 L 303.6,179.4 L 306.0,181.5 L 308.4,183.8 L 310.7,186.1 L 313.0,188.5 L 315.1,191.0 L 317.2,193.7 L 319.2,196.4 L 321.1,199.2 L 322.8,202.2 L 324.5,205.2 L 325.9,208.3 L 327.2,211.5 L 328.3,214.8 L 329.3,218.2 L 330.0,221.6 L 330.6,225.0 L 330.9,228.5 L 331.1,232.0 Z"/>
<path d="M 351.3,232.0 L 351.0,236.3 L 350.5,240.5 L 349.8,244.8 L 348.9,248.9 L 347.9,253.1 L 346.6,257.1 L 345.2,261.1 L 343.6,265.0 L 341.9,268.8 L 340.0,272.6 L 337.9,276.2 L 335.7,279.7 L 333.3,283.2 L 330.9,286.5 L 328.3,289.7 L 325.6,292.7 L 322.8,295.7 L 319.9,298.5 L 316.9,301.2 L 313.8,303.8 L 310.7,306.3 L 307.5,308.6 L 304.2,310.9 L 300.8,313.0 L 297.4,314.9 L 294.0,316.8 L 290.5,318.5 L 286.9,320.2 L 283.3,321.7 L 279.7,323.1 L 276.1,324.3 L 272.4,325.5 L 268.7,326.6 L 264.9,327.5 L 261.2,328.3 L 257.4,329.0 L 253.6,329.6 L 249.7,330.1 L 245.9,330.5 L 242.0,330.7 L 238.1,330.9 L 234.2,330.9 L 230.3,330.7 L 226.4,330.5 L 222.5,330.1 L 218.6,329.6 L 214.6,329.0 L 210.7,328.2 L 206.8,327.3 L 203.0,326.2 L 199.1,325.0 L 195.3,323.6 L 191.5,322.1 L 187.8,320.5 L 184.1,318.6 L 180.5,316.7 L 176.9,314.5 L 173.4,312.3 L 170.1,309.8 L 166.8,307.2 L 163.6,304.5 L 160.5,301.6 L 157.5,298.6 L 154.7,295.4 L 152.0,292.1 L 149.5,288.7 L 147.1,285.2 L 144.8,281.5 L 142.8,277.7 L 140.9,273.9 L 139.2,269.9 L 137.7,265.9 L 136.4,261.8 L 135.2,257.6 L 134.3,253.4 L 133.6,249.2 L 133.1,244.9 L 132.8,240.6 L 132.6,236.3 L 132.7,232.0 L 133.0,227.7 L 133.5,223.5 L 134.2,219.2 L 135.1,215.1 L 136.1,210.9 L 137.4,206.9 L 138.8,202.9 L 140.4,199.0 L 142.1,195.2 L 144.0,191.4 L 146.1,187.8 L 148.3,184.3 L 150.7,180.8 L 153.1,177.5 L 155.7,174.3 L 158.4,171.3 L 161.2,168.3 L 164.1,165.5 L 167.1,162.8 L 170.2,160.2 L 173.3,157.7 L 176.5,155.4 L 179.8,153.1 L 183.2,151.0 L 186.6,149.1 L 190.0,147.2 L 193.5,145.5 L 197.1,143.8 L 200.7,142.3 L 204.3,140.9 L 207.9,139.7 L 211.6,138.5 L 215.3,137.4 L 219.1,136.5 L 222.8,135.7 L 226.6,135.0 L 230.4,134.4 L 234.3,133.9 L 238.1,133.5 L 242.0,133.3 L 245.9,133.1 L 249.8,133.1 L 253.7,133.3 L 257.6,133.5 L 261.5,133.9 L 265.4,134.4 L 269.4,135.0 L 273.3,135.8 L 277.2,136.7 L 281.0,137.8 L 284.9,139.0 L 288.7,140.4 L 292.5,141.9 L 296.2,143.5 L 299.9,145.4 L 303.5,147.3 L 307.1,149.5 L 310.6,151.7 L 313.9,154.2 L 317.2,156.8 L 320.4,159.5 L 323.5,162.4 L 326.5,165.4 L 329.3,168.6 L 332.0,171.9 L 334.5,175.3 L 336.9,178.8 L 339.2,182.5 L 341.2,186.3 L 343.1,190.1 L 344.8,194.1 L 346.3,198.1 L 347.6,202.2 L 348.8,206.4 L 349.7,210.6 L 350.4,214.8 L 350.9,219.1 L 351.2,223.4 L 351.4,227.7 L 351.3,232.0 Z"/>
<path d="M 369.9,232.0 L 369.2,237.0 L 368.2,241.9 L 367.0,246.8 L 365.6,251.6 L 364.0,256.3 L 362.2,260.8 L 360.2,265.3 L 358.1,269.7 L 355.9,274.0 L 353.5,278.2 L 351.0,282.3 L 348.4,286.2 L 345.8,290.1 L 343.0,293.9 L 340.2,297.6 L 337.3,301.3 L 334.4,304.8 L 331.4,308.3 L 328.3,311.8 L 325.1,315.1 L 321.9,318.4 L 318.6,321.7 L 315.2,324.9 L 311.8,328.0 L 308.2,331.1 L 304.6,334.1 L 300.8,337.0 L 296.9,339.8 L 292.9,342.5 L 288.8,345.1 L 284.6,347.5 L 280.3,349.8 L 275.8,352.0 L 271.3,354.0 L 266.6,355.7 L 261.8,357.3 L 257.0,358.7 L 252.1,359.8 L 247.1,360.6 L 242.0,361.2 L 236.9,361.5 L 231.8,361.6 L 226.7,361.3 L 221.6,360.8 L 216.5,360.0 L 211.5,358.9 L 206.6,357.5 L 201.8,355.8 L 197.0,353.9 L 192.4,351.7 L 187.9,349.3 L 183.6,346.6 L 179.4,343.8 L 175.4,340.7 L 171.6,337.4 L 167.9,334.0 L 164.4,330.4 L 161.1,326.7 L 157.9,322.9 L 155.0,319.0 L 152.2,315.0 L 149.5,311.0 L 147.1,306.8 L 144.7,302.7 L 142.5,298.5 L 140.4,294.2 L 138.5,290.0 L 136.6,285.7 L 134.9,281.4 L 133.3,277.0 L 131.7,272.7 L 130.3,268.3 L 128.9,263.9 L 127.6,259.5 L 126.4,255.0 L 125.3,250.5 L 124.3,245.9 L 123.4,241.3 L 122.6,236.7 L 121.9,232.0 L 121.3,227.3 L 120.9,222.5 L 120.7,217.6 L 120.6,212.8 L 120.7,207.9 L 121.0,203.0 L 121.5,198.0 L 122.2,193.1 L 123.2,188.2 L 124.4,183.3 L 125.8,178.4 L 127.5,173.6 L 129.4,168.9 L 131.6,164.3 L 134.0,159.9 L 136.7,155.5 L 139.6,151.3 L 142.8,147.3 L 146.2,143.4 L 149.8,139.8 L 153.6,136.3 L 157.5,133.1 L 161.7,130.1 L 166.0,127.4 L 170.4,124.9 L 175.0,122.6 L 179.6,120.6 L 184.3,118.8 L 189.1,117.3 L 193.9,116.0 L 198.8,114.9 L 203.7,114.0 L 208.5,113.3 L 213.4,112.8 L 218.2,112.5 L 223.1,112.4 L 227.8,112.4 L 232.6,112.5 L 237.3,112.8 L 242.0,113.2 L 246.6,113.7 L 251.3,114.3 L 255.8,115.0 L 260.4,115.9 L 264.9,116.7 L 269.4,117.7 L 273.9,118.8 L 278.4,120.0 L 282.9,121.2 L 287.3,122.6 L 291.8,124.1 L 296.2,125.7 L 300.6,127.4 L 305.0,129.2 L 309.3,131.2 L 313.7,133.4 L 317.9,135.7 L 322.1,138.2 L 326.3,140.8 L 330.3,143.7 L 334.3,146.7 L 338.1,149.9 L 341.8,153.3 L 345.4,156.9 L 348.7,160.7 L 351.9,164.7 L 354.9,168.8 L 357.6,173.1 L 360.1,177.5 L 362.4,182.1 L 364.4,186.9 L 366.1,191.7 L 367.6,196.6 L 368.7,201.6 L 369.6,206.6 L 370.2,211.7 L 370.6,216.8 L 370.6,221.9 L 370.4,227.0 L 369.9,232.0 Z"/>
<path d="M 387.0,232.0 L 386.3,237.7 L 385.5,243.3 L 384.4,248.9 L 383.1,254.3 L 381.6,259.8 L 379.9,265.1 L 378.0,270.4 L 375.9,275.5 L 373.7,280.6 L 371.3,285.5 L 368.7,290.4 L 366.0,295.2 L 363.1,299.8 L 360.0,304.3 L 356.9,308.8 L 353.6,313.1 L 350.1,317.2 L 346.6,321.3 L 342.9,325.2 L 339.1,329.1 L 335.1,332.8 L 331.1,336.3 L 327.0,339.8 L 322.7,343.1 L 318.3,346.3 L 313.9,349.3 L 309.3,352.2 L 304.6,354.9 L 299.9,357.6 L 295.0,360.0 L 290.1,362.3 L 285.0,364.5 L 279.9,366.4 L 274.7,368.2 L 269.4,369.8 L 264.1,371.3 L 258.6,372.5 L 253.1,373.6 L 247.6,374.4 L 242.0,375.0 L 236.4,375.5 L 230.7,375.7 L 225.0,375.6 L 219.3,375.4 L 213.6,374.9 L 207.9,374.2 L 202.2,373.2 L 196.5,372.0 L 190.9,370.5 L 185.3,368.8 L 179.8,366.9 L 174.4,364.7 L 169.1,362.2 L 163.9,359.5 L 158.7,356.6 L 153.8,353.4 L 148.9,350.1 L 144.3,346.4 L 139.7,342.6 L 135.4,338.6 L 131.3,334.4 L 127.3,329.9 L 123.6,325.3 L 120.1,320.6 L 116.8,315.7 L 113.7,310.6 L 110.9,305.4 L 108.3,300.1 L 106.0,294.7 L 103.9,289.2 L 102.1,283.6 L 100.5,278.0 L 99.2,272.3 L 98.2,266.5 L 97.4,260.8 L 96.8,255.0 L 96.5,249.2 L 96.4,243.5 L 96.6,237.7 L 97.0,232.0 L 97.7,226.3 L 98.5,220.7 L 99.6,215.1 L 100.9,209.7 L 102.4,204.2 L 104.1,198.9 L 106.0,193.6 L 108.1,188.5 L 110.3,183.4 L 112.7,178.5 L 115.3,173.6 L 118.0,168.8 L 120.9,164.2 L 124.0,159.7 L 127.1,155.2 L 130.4,150.9 L 133.9,146.8 L 137.4,142.7 L 141.1,138.8 L 144.9,134.9 L 148.9,131.2 L 152.9,127.7 L 157.0,124.2 L 161.3,120.9 L 165.7,117.7 L 170.1,114.7 L 174.7,111.8 L 179.4,109.1 L 184.1,106.4 L 189.0,104.0 L 193.9,101.7 L 199.0,99.5 L 204.1,97.6 L 209.3,95.8 L 214.6,94.2 L 219.9,92.7 L 225.4,91.5 L 230.9,90.4 L 236.4,89.6 L 242.0,89.0 L 247.6,88.5 L 253.3,88.3 L 259.0,88.4 L 264.7,88.6 L 270.4,89.1 L 276.1,89.8 L 281.8,90.8 L 287.5,92.0 L 293.1,93.5 L 298.7,95.2 L 304.2,97.1 L 309.6,99.3 L 314.9,101.8 L 320.1,104.5 L 325.3,107.4 L 330.2,110.6 L 335.1,113.9 L 339.7,117.6 L 344.3,121.4 L 348.6,125.4 L 352.7,129.6 L 356.7,134.1 L 360.4,138.7 L 363.9,143.4 L 367.2,148.3 L 370.3,153.4 L 373.1,158.6 L 375.7,163.9 L 378.0,169.3 L 380.1,174.8 L 381.9,180.4 L 383.5,186.0 L 384.8,191.7 L 385.8,197.5 L 386.6,203.2 L 387.2,209.0 L 387.5,214.8 L 387.6,220.5 L 387.4,226.3 L 387.0,232.0 Z"/>
<path d="M 403.6,232.0 L 402.8,238.3 L 401.7,244.6 L 400.5,250.8 L 399.0,256.9 L 397.4,262.9 L 395.7,268.9 L 393.8,274.8 L 391.7,280.7 L 389.6,286.4 L 387.2,292.2 L 384.8,297.8 L 382.2,303.4 L 379.5,309.0 L 376.6,314.5 L 373.6,319.9 L 370.4,325.3 L 367.0,330.6 L 363.5,335.8 L 359.8,340.9 L 356.0,346.0 L 351.9,350.9 L 347.7,355.7 L 343.2,360.4 L 338.6,364.9 L 333.7,369.3 L 328.7,373.4 L 323.4,377.4 L 318.0,381.1 L 312.3,384.6 L 306.5,387.8 L 300.6,390.7 L 294.4,393.4 L 288.2,395.7 L 281.8,397.7 L 275.3,399.3 L 268.7,400.7 L 262.1,401.6 L 255.4,402.2 L 248.7,402.5 L 242.0,402.4 L 235.3,401.9 L 228.7,401.1 L 222.1,400.0 L 215.6,398.5 L 209.2,396.7 L 202.9,394.7 L 196.8,392.3 L 190.8,389.7 L 184.9,386.8 L 179.2,383.7 L 173.6,380.4 L 168.2,376.9 L 162.9,373.2 L 157.8,369.4 L 152.9,365.4 L 148.1,361.3 L 143.5,357.0 L 139.0,352.6 L 134.6,348.2 L 130.4,343.6 L 126.3,338.9 L 122.4,334.2 L 118.5,329.3 L 114.8,324.4 L 111.2,319.4 L 107.7,314.3 L 104.4,309.1 L 101.1,303.8 L 98.0,298.4 L 95.1,292.9 L 92.3,287.2 L 89.6,281.5 L 87.1,275.7 L 84.8,269.7 L 82.7,263.7 L 80.8,257.5 L 79.1,251.3 L 77.7,244.9 L 76.5,238.5 L 75.6,232.0 L 75.0,225.4 L 74.7,218.8 L 74.7,212.2 L 75.1,205.6 L 75.7,198.9 L 76.7,192.3 L 78.1,185.8 L 79.8,179.3 L 81.8,172.9 L 84.2,166.6 L 86.9,160.5 L 89.9,154.5 L 93.3,148.7 L 96.9,143.1 L 100.8,137.7 L 105.0,132.5 L 109.5,127.5 L 114.1,122.8 L 119.0,118.3 L 124.0,114.0 L 129.3,110.1 L 134.7,106.3 L 140.2,102.8 L 145.8,99.6 L 151.5,96.6 L 157.3,93.8 L 163.2,91.2 L 169.1,88.9 L 175.0,86.7 L 181.0,84.8 L 187.0,83.0 L 193.1,81.4 L 199.1,80.0 L 205.2,78.7 L 211.3,77.6 L 217.4,76.7 L 223.5,75.9 L 229.7,75.2 L 235.8,74.7 L 242.0,74.4 L 248.2,74.2 L 254.4,74.1 L 260.7,74.2 L 266.9,74.6 L 273.2,75.0 L 279.5,75.7 L 285.8,76.6 L 292.1,77.8 L 298.4,79.1 L 304.7,80.7 L 310.9,82.5 L 317.1,84.7 L 323.2,87.0 L 329.2,89.7 L 335.1,92.7 L 340.9,95.9 L 346.5,99.4 L 352.0,103.2 L 357.3,107.3 L 362.3,111.7 L 367.2,116.3 L 371.8,121.2 L 376.1,126.3 L 380.2,131.6 L 383.9,137.2 L 387.4,142.9 L 390.6,148.8 L 393.4,154.9 L 395.9,161.0 L 398.1,167.3 L 400.0,173.7 L 401.5,180.2 L 402.8,186.7 L 403.7,193.2 L 404.4,199.7 L 404.7,206.2 L 404.8,212.7 L 404.7,219.2 L 404.3,225.6 L 403.6,232.0 Z"/>
<path d="M 420.9,232.0 L 420.4,239.0 L 419.7,246.0 L 418.7,252.9 L 417.5,259.8 L 416.1,266.6 L 414.5,273.4 L 412.6,280.1 L 410.6,286.8 L 408.2,293.3 L 405.7,299.8 L 403.0,306.2 L 400.0,312.5 L 396.9,318.7 L 393.5,324.8 L 389.9,330.8 L 386.2,336.7 L 382.2,342.5 L 378.0,348.1 L 373.6,353.6 L 369.0,359.0 L 364.2,364.2 L 359.2,369.2 L 354.0,374.0 L 348.6,378.7 L 343.0,383.2 L 337.3,387.5 L 331.4,391.6 L 325.3,395.4 L 319.0,399.1 L 312.6,402.5 L 306.0,405.6 L 299.3,408.5 L 292.5,411.1 L 285.6,413.4 L 278.5,415.5 L 271.3,417.2 L 264.1,418.7 L 256.8,419.8 L 249.4,420.6 L 242.0,421.1 L 234.6,421.3 L 227.1,421.2 L 219.7,420.7 L 212.2,419.9 L 204.8,418.8 L 197.5,417.3 L 190.2,415.6 L 183.0,413.4 L 176.0,411.0 L 169.0,408.3 L 162.2,405.2 L 155.5,401.8 L 148.9,398.2 L 142.6,394.3 L 136.4,390.0 L 130.4,385.6 L 124.7,380.8 L 119.1,375.9 L 113.8,370.7 L 108.7,365.3 L 103.9,359.6 L 99.4,353.8 L 95.1,347.8 L 91.0,341.7 L 87.2,335.4 L 83.7,329.0 L 80.5,322.4 L 77.5,315.8 L 74.9,309.0 L 72.5,302.2 L 70.3,295.3 L 68.5,288.4 L 66.9,281.4 L 65.6,274.4 L 64.5,267.3 L 63.7,260.2 L 63.2,253.2 L 62.9,246.1 L 62.9,239.0 L 63.1,232.0 L 63.6,225.0 L 64.3,218.0 L 65.3,211.1 L 66.5,204.2 L 67.9,197.4 L 69.5,190.6 L 71.4,183.9 L 73.4,177.2 L 75.8,170.7 L 78.3,164.2 L 81.0,157.8 L 84.0,151.5 L 87.1,145.3 L 90.5,139.2 L 94.1,133.2 L 97.8,127.3 L 101.8,121.5 L 106.0,115.9 L 110.4,110.4 L 115.0,105.0 L 119.8,99.8 L 124.8,94.8 L 130.0,90.0 L 135.4,85.3 L 141.0,80.8 L 146.7,76.5 L 152.6,72.4 L 158.7,68.6 L 165.0,64.9 L 171.4,61.5 L 178.0,58.4 L 184.7,55.5 L 191.5,52.9 L 198.4,50.6 L 205.5,48.5 L 212.7,46.8 L 219.9,45.3 L 227.2,44.2 L 234.6,43.4 L 242.0,42.9 L 249.4,42.7 L 256.9,42.8 L 264.3,43.3 L 271.8,44.1 L 279.2,45.2 L 286.5,46.7 L 293.8,48.4 L 301.0,50.6 L 308.0,53.0 L 315.0,55.7 L 321.8,58.8 L 328.5,62.2 L 335.1,65.8 L 341.4,69.7 L 347.6,74.0 L 353.6,78.4 L 359.3,83.2 L 364.9,88.1 L 370.2,93.3 L 375.3,98.7 L 380.1,104.4 L 384.6,110.2 L 388.9,116.2 L 393.0,122.3 L 396.8,128.6 L 400.3,135.0 L 403.5,141.6 L 406.5,148.2 L 409.1,155.0 L 411.5,161.8 L 413.7,168.7 L 415.5,175.6 L 417.1,182.6 L 418.4,189.6 L 419.5,196.7 L 420.3,203.8 L 420.8,210.8 L 421.1,217.9 L 421.1,225.0 L 420.9,232.0 Z"/>
<path d="M 439.4,232.0 L 439.1,239.7 L 438.6,247.5 L 437.9,255.2 L 437.0,262.9 L 435.9,270.6 L 434.5,278.2 L 433.0,285.9 L 431.2,293.5 L 429.2,301.1 L 426.9,308.6 L 424.4,316.1 L 421.6,323.5 L 418.5,330.9 L 415.2,338.1 L 411.5,345.3 L 407.6,352.3 L 403.4,359.2 L 398.8,365.9 L 394.0,372.5 L 388.9,378.9 L 383.4,385.0 L 377.7,390.9 L 371.7,396.5 L 365.4,401.8 L 358.8,406.8 L 352.0,411.5 L 345.0,415.8 L 337.7,419.8 L 330.2,423.4 L 322.6,426.7 L 314.9,429.5 L 307.0,431.9 L 299.0,434.0 L 290.9,435.6 L 282.8,436.9 L 274.6,437.7 L 266.4,438.2 L 258.2,438.3 L 250.1,438.0 L 242.0,437.4 L 234.0,436.5 L 226.0,435.2 L 218.1,433.6 L 210.4,431.8 L 202.7,429.6 L 195.1,427.2 L 187.7,424.6 L 180.4,421.7 L 173.2,418.6 L 166.1,415.3 L 159.1,411.8 L 152.3,408.1 L 145.5,404.2 L 138.9,400.2 L 132.4,396.0 L 126.1,391.6 L 119.8,387.0 L 113.7,382.2 L 107.7,377.3 L 101.8,372.2 L 96.0,366.9 L 90.4,361.4 L 85.0,355.8 L 79.7,349.9 L 74.6,343.8 L 69.7,337.6 L 65.0,331.1 L 60.6,324.4 L 56.4,317.6 L 52.4,310.5 L 48.7,303.3 L 45.4,295.9 L 42.3,288.3 L 39.6,280.6 L 37.3,272.7 L 35.3,264.7 L 33.7,256.7 L 32.5,248.5 L 31.7,240.3 L 31.4,232.0 L 31.4,223.7 L 31.9,215.5 L 32.7,207.2 L 34.0,199.1 L 35.7,191.0 L 37.8,183.0 L 40.3,175.1 L 43.2,167.4 L 46.4,159.8 L 50.0,152.5 L 53.8,145.3 L 58.0,138.3 L 62.5,131.5 L 67.3,124.9 L 72.3,118.6 L 77.5,112.5 L 83.0,106.6 L 88.6,101.0 L 94.4,95.6 L 100.4,90.4 L 106.5,85.4 L 112.7,80.6 L 119.1,76.1 L 125.5,71.7 L 132.1,67.6 L 138.8,63.6 L 145.6,59.9 L 152.5,56.3 L 159.4,52.9 L 166.5,49.7 L 173.6,46.7 L 180.9,43.9 L 188.2,41.3 L 195.6,38.9 L 203.2,36.7 L 210.8,34.8 L 218.5,33.0 L 226.2,31.6 L 234.1,30.4 L 242.0,29.4 L 250.0,28.8 L 258.0,28.5 L 266.1,28.5 L 274.2,28.8 L 282.3,29.5 L 290.4,30.5 L 298.4,31.9 L 306.4,33.7 L 314.4,35.8 L 322.2,38.4 L 329.9,41.3 L 337.5,44.6 L 344.9,48.3 L 352.1,52.3 L 359.1,56.7 L 365.9,61.5 L 372.4,66.6 L 378.7,72.0 L 384.6,77.7 L 390.3,83.7 L 395.7,90.0 L 400.7,96.5 L 405.4,103.2 L 409.8,110.1 L 413.9,117.2 L 417.6,124.4 L 421.0,131.7 L 424.1,139.2 L 426.9,146.8 L 429.3,154.4 L 431.5,162.1 L 433.4,169.8 L 435.0,177.6 L 436.4,185.3 L 437.4,193.1 L 438.3,200.9 L 438.9,208.7 L 439.3,216.5 L 439.4,224.2 L 439.4,232.0 Z"/>
<path d="M 459.5,232.0 L 459.5,240.5 L 459.2,249.1 L 458.6,257.6 L 457.7,266.2 L 456.5,274.7 L 455.0,283.1 L 453.2,291.6 L 451.1,299.9 L 448.7,308.2 L 445.9,316.5 L 442.9,324.6 L 439.6,332.7 L 435.9,340.6 L 431.9,348.4 L 427.7,356.1 L 423.1,363.6 L 418.2,370.9 L 413.0,378.1 L 407.5,385.0 L 401.8,391.8 L 395.7,398.3 L 389.4,404.6 L 382.8,410.6 L 375.9,416.3 L 368.8,421.8 L 361.5,427.0 L 353.9,431.8 L 346.1,436.4 L 338.2,440.6 L 330.0,444.5 L 321.7,448.0 L 313.2,451.1 L 304.6,453.9 L 295.9,456.3 L 287.0,458.3 L 278.1,460.0 L 269.1,461.2 L 260.1,462.0 L 251.1,462.5 L 242.0,462.5 L 233.0,462.2 L 223.9,461.4 L 215.0,460.3 L 206.1,458.8 L 197.3,456.9 L 188.6,454.6 L 180.0,452.0 L 171.5,449.0 L 163.2,445.6 L 155.0,441.9 L 147.1,437.9 L 139.3,433.6 L 131.7,429.0 L 124.3,424.1 L 117.2,418.8 L 110.2,413.4 L 103.5,407.6 L 97.1,401.7 L 90.9,395.5 L 85.0,389.0 L 79.3,382.4 L 73.9,375.6 L 68.8,368.6 L 63.9,361.4 L 59.3,354.1 L 55.0,346.6 L 51.0,339.0 L 47.2,331.2 L 43.8,323.4 L 40.6,315.4 L 37.7,307.4 L 35.1,299.2 L 32.7,291.0 L 30.7,282.7 L 28.9,274.4 L 27.5,266.0 L 26.3,257.5 L 25.4,249.0 L 24.8,240.5 L 24.5,232.0 L 24.5,223.5 L 24.8,214.9 L 25.4,206.4 L 26.3,197.8 L 27.5,189.3 L 29.0,180.9 L 30.8,172.4 L 32.9,164.1 L 35.3,155.8 L 38.1,147.5 L 41.1,139.4 L 44.4,131.3 L 48.1,123.4 L 52.1,115.6 L 56.3,107.9 L 60.9,100.4 L 65.8,93.1 L 71.0,85.9 L 76.5,79.0 L 82.2,72.2 L 88.3,65.7 L 94.6,59.4 L 101.2,53.4 L 108.1,47.7 L 115.2,42.2 L 122.5,37.0 L 130.1,32.2 L 137.9,27.6 L 145.8,23.4 L 154.0,19.5 L 162.3,16.0 L 170.8,12.9 L 179.4,10.1 L 188.1,7.7 L 197.0,5.7 L 205.9,4.0 L 214.9,2.8 L 223.9,2.0 L 232.9,1.5 L 242.0,1.5 L 251.0,1.8 L 260.1,2.6 L 269.0,3.7 L 277.9,5.2 L 286.7,7.1 L 295.4,9.4 L 304.0,12.0 L 312.5,15.0 L 320.8,18.4 L 329.0,22.1 L 336.9,26.1 L 344.7,30.4 L 352.3,35.0 L 359.7,39.9 L 366.8,45.2 L 373.8,50.6 L 380.5,56.4 L 386.9,62.3 L 393.1,68.5 L 399.0,75.0 L 404.7,81.6 L 410.1,88.4 L 415.2,95.4 L 420.1,102.6 L 424.7,109.9 L 429.0,117.4 L 433.0,125.0 L 436.8,132.8 L 440.2,140.6 L 443.4,148.6 L 446.3,156.6 L 448.9,164.8 L 451.3,173.0 L 453.3,181.3 L 455.1,189.6 L 456.5,198.0 L 457.7,206.5 L 458.6,215.0 L 459.2,223.5 L 459.5,232.0 Z"/>
</svg>