<svg xmlns="http://www.w3.org/2000/svg" viewBox="0 0 80 80" fill="none" stroke="currentColor" stroke-width="1.4" stroke-linejoin="round">
<path d="M 40.00,10.00 L 44.76,28.52 L 61.21,18.79 L 51.48,35.24 L 70.00,40.00 L 51.48,44.76 L 61.21,61.21 L 44.76,51.48 L 40.00,70.00 L 35.24,51.48 L 18.79,61.21 L 28.52,44.76 L 10.00,40.00 L 28.52,35.24 L 18.79,18.79 L 35.24,28.52 Z"/>
<path d="M 40.00,24.00 L 42.54,33.88 L 51.31,28.69 L 46.12,37.46 L 56.00,40.00 L 46.12,42.54 L 51.31,51.31 L 42.54,46.12 L 40.00,56.00 L 37.46,46.12 L 28.69,51.31 L 33.88,42.54 L 24.00,40.00 L 33.88,37.46 L 28.69,28.69 L 37.46,33.88 Z"/>
</svg>