<svg xmlns="http://www.w3.org/2000/svg" viewBox="0 0 64 96" fill="none" stroke="currentColor" stroke-width="1.25" stroke-linejoin="round">
<path d="M 32.00,26.00 L 35.49,39.58 L 47.56,32.44 L 40.42,44.51 L 54.00,48.00 L 40.42,51.49 L 47.56,63.56 L 35.49,56.42 L 32.00,70.00 L 28.51,56.42 L 16.44,63.56 L 23.58,51.49 L 10.00,48.00 L 23.58,44.51 L 16.44,32.44 L 28.51,39.58 Z"/>
<path d="M 32.00,37.00 L 33.74,43.79 L 39.78,40.22 L 36.21,46.26 L 43.00,48.00 L 36.21,49.74 L 39.78,55.78 L 33.74,52.21 L 32.00,59.00 L 30.26,52.21 L 24.22,55.78 L 27.79,49.74 L 21.00,48.00 L 27.79,46.26 L 24.22,40.22 L 30.26,43.79 Z"/>
<path d="M 32.00,-9.00 L 41.00,0.00 L 32.00,9.00 L 23.00,0.00 Z"/>
<path d="M 32.00,87.00 L 41.00,96.00 L 32.00,105.00 L 23.00,96.00 Z"/>
<line x1="32.0" y1="9" x2="32.0" y2="26.0"/>
<line x1="32.0" y1="70.0" x2="32.0" y2="87"/>
</svg>