<svg xmlns="http://www.w3.org/2000/svg" viewBox="0 0 120 120" fill="none" stroke="currentColor" stroke-width="1.2" stroke-linejoin="round">
  <!-- Central 8-pointed star -->
  <g transform="translate(60,60) scale(0.55)">
    <path d="M 0,-30 L 4.76,-11.48 L 21.21,-21.21 L 11.48,-4.76 L 30,0 L 11.48,4.76 L 21.21,21.21 L 4.76,11.48 L 0,30 L -4.76,11.48 L -21.21,21.21 L -11.48,4.76 L -30,0 L -11.48,-4.76 L -21.21,-21.21 L -4.76,-11.48 Z"/>
    <path d="M 0,-16 L 2.54,-6.12 L 11.31,-11.31 L 6.12,-2.54 L 16,0 L 6.12,2.54 L 11.31,11.31 L 2.54,6.12 L 0,16 L -2.54,6.12 L -11.31,11.31 L -6.12,2.54 L -16,0 L -6.12,-2.54 L -11.31,-11.31 L -2.54,-6.12 Z"/>
  </g>
  <!-- Corner quarter-stars (scaled 0.3, at corners) -->
  <g transform="translate(0,0) scale(0.33)">
    <path d="M 0,-30 L 4.76,-11.48 L 21.21,-21.21 L 11.48,-4.76 L 30,0 L 11.48,4.76 L 21.21,21.21 L 4.76,11.48 L 0,30 L -4.76,11.48 L -21.21,21.21 L -11.48,4.76 L -30,0 L -11.48,-4.76 L -21.21,-21.21 L -4.76,-11.48 Z"/>
  </g>
  <g transform="translate(120,0) scale(0.33)">
    <path d="M 0,-30 L 4.76,-11.48 L 21.21,-21.21 L 11.48,-4.76 L 30,0 L 11.48,4.76 L 21.21,21.21 L 4.76,11.48 L 0,30 L -4.76,11.48 L -21.21,21.21 L -11.48,4.76 L -30,0 L -11.48,-4.76 L -21.21,-21.21 L -4.76,-11.48 Z"/>
  </g>
  <g transform="translate(0,120) scale(0.33)">
    <path d="M 0,-30 L 4.76,-11.48 L 21.21,-21.21 L 11.48,-4.76 L 30,0 L 11.48,4.76 L 21.21,21.21 L 4.76,11.48 L 0,30 L -4.76,11.48 L -21.21,21.21 L -11.48,4.76 L -30,0 L -11.48,-4.76 L -21.21,-21.21 L -4.76,-11.48 Z"/>
  </g>
  <g transform="translate(120,120) scale(0.33)">
    <path d="M 0,-30 L 4.76,-11.48 L 21.21,-21.21 L 11.48,-4.76 L 30,0 L 11.48,4.76 L 21.21,21.21 L 4.76,11.48 L 0,30 L -4.76,11.48 L -21.21,21.21 L -11.48,4.76 L -30,0 L -11.48,-4.76 L -21.21,-21.21 L -4.76,-11.48 Z"/>
  </g>
  <!-- Edge mid-stars (half-visible) -->
  <g transform="translate(60,0) scale(0.38)">
    <path d="M 0,-30 L 4.76,-11.48 L 21.21,-21.21 L 11.48,-4.76 L 30,0 L 11.48,4.76 L 21.21,21.21 L 4.76,11.48 L 0,30 L -4.76,11.48 L -21.21,21.21 L -11.48,4.76 L -30,0 L -11.48,-4.76 L -21.21,-21.21 L -4.76,-11.48 Z"/>
  </g>
  <g transform="translate(60,120) scale(0.38)">
    <path d="M 0,-30 L 4.76,-11.48 L 21.21,-21.21 L 11.48,-4.76 L 30,0 L 11.48,4.76 L 21.21,21.21 L 4.76,11.48 L 0,30 L -4.76,11.48 L -21.21,21.21 L -11.48,4.76 L -30,0 L -11.48,-4.76 L -21.21,-21.21 L -4.76,-11.48 Z"/>
  </g>
  <g transform="translate(0,60) scale(0.38)">
    <path d="M 0,-30 L 4.76,-11.48 L 21.21,-21.21 L 11.48,-4.76 L 30,0 L 11.48,4.76 L 21.21,21.21 L 4.76,11.48 L 0,30 L -4.76,11.48 L -21.21,21.21 L -11.48,4.76 L -30,0 L -11.48,-4.76 L -21.21,-21.21 L -4.76,-11.48 Z"/>
  </g>
  <g transform="translate(120,60) scale(0.38)">
    <path d="M 0,-30 L 4.76,-11.48 L 21.21,-21.21 L 11.48,-4.76 L 30,0 L 11.48,4.76 L 21.21,21.21 L 4.76,11.48 L 0,30 L -4.76,11.48 L -21.21,21.21 L -11.48,4.76 L -30,0 L -11.48,-4.76 L -21.21,-21.21 L -4.76,-11.48 Z"/>
  </g>
</svg>
