<svg xmlns="http://www.w3.org/2000/svg" viewBox="0 0 300 32" fill="none" stroke="currentColor" stroke-width="1.4" stroke-linejoin="round">
  <!-- thin connecting lines between stars -->
  <line x1="0" y1="16" x2="38" y2="16" stroke-width="0.6"/>
  <line x1="62" y1="16" x2="138" y2="16" stroke-width="0.6"/>
  <line x1="162" y1="16" x2="238" y2="16" stroke-width="0.6"/>
  <line x1="262" y1="16" x2="300" y2="16" stroke-width="0.6"/>
  <!-- small diamond connectors -->
  <polygon points="100,13 103,16 100,19 97,16" fill="currentColor" stroke="none"/>
  <polygon points="200,13 203,16 200,19 197,16" fill="currentColor" stroke="none"/>
  <!-- khatam star at x=50 -->
  <g transform="translate(50,16) scale(0.4)">
    <path d="M 0,-30 L 4.76,-11.48 L 21.21,-21.21 L 11.48,-4.76 L 30,0 L 11.48,4.76 L 21.21,21.21 L 4.76,11.48 L 0,30 L -4.76,11.48 L -21.21,21.21 L -11.48,4.76 L -30,0 L -11.48,-4.76 L -21.21,-21.21 L -4.76,-11.48 Z"/>
    <path d="M 0,-16 L 2.54,-6.12 L 11.31,-11.31 L 6.12,-2.54 L 16,0 L 6.12,2.54 L 11.31,11.31 L 2.54,6.12 L 0,16 L -2.54,6.12 L -11.31,11.31 L -6.12,2.54 L -16,0 L -6.12,-2.54 L -11.31,-11.31 L -2.54,-6.12 Z"/>
  </g>
  <!-- khatam star at x=150 -->
  <g transform="translate(150,16) scale(0.4)">
    <path d="M 0,-30 L 4.76,-11.48 L 21.21,-21.21 L 11.48,-4.76 L 30,0 L 11.48,4.76 L 21.21,21.21 L 4.76,11.48 L 0,30 L -4.76,11.48 L -21.21,21.21 L -11.48,4.76 L -30,0 L -11.48,-4.76 L -21.21,-21.21 L -4.76,-11.48 Z"/>
    <path d="M 0,-16 L 2.54,-6.12 L 11.31,-11.31 L 6.12,-2.54 L 16,0 L 6.12,2.54 L 11.31,11.31 L 2.54,6.12 L 0,16 L -2.54,6.12 L -11.31,11.31 L -6.12,2.54 L -16,0 L -6.12,-2.54 L -11.31,-11.31 L -2.54,-6.12 Z"/>
  </g>
  <!-- khatam star at x=250 -->
  <g transform="translate(250,16) scale(0.4)">
    <path d="M 0,-30 L 4.76,-11.48 L 21.21,-21.21 L 11.48,-4.76 L 30,0 L 11.48,4.76 L 21.21,21.21 L 4.76,11.48 L 0,30 L -4.76,11.48 L -21.21,21.21 L -11.48,4.76 L -30,0 L -11.48,-4.76 L -21.21,-21.21 L -4.76,-11.48 Z"/>
    <path d="M 0,-16 L 2.54,-6.12 L 11.31,-11.31 L 6.12,-2.54 L 16,0 L 6.12,2.54 L 11.31,11.31 L 2.54,6.12 L 0,16 L -2.54,6.12 L -11.31,11.31 L -6.12,2.54 L -16,0 L -6.12,-2.54 L -11.31,-11.31 L -2.54,-6.12 Z"/>
  </g>
</svg>
