<svg width="1200" height="860" viewBox="0 0 1200 860" fill="none" xmlns="http://www.w3.org/2000/svg">
  <rect width="1200" height="860" fill="#F3EDE3"/>
  <rect x="56" y="54" width="1088" height="752" rx="30" fill="#F9F5EE" stroke="#D7C6B4"/>
  <text x="110" y="132" fill="#1D1710" font-family="Georgia, serif" font-size="54">Concept board</text>
  <text x="110" y="170" fill="#8A4A33" font-family="Arial, sans-serif" font-size="18" letter-spacing="4">LEARNING FRICTION -> TACTILE LOGIC -> TESTABLE INTERACTIONS</text>
  <rect x="110" y="232" width="272" height="184" rx="22" fill="#E6D9C8"/>
  <rect x="420" y="232" width="272" height="184" rx="22" fill="#E7ECE8"/>
  <rect x="730" y="232" width="304" height="184" rx="22" fill="#E7E2D6"/>
  <text x="138" y="292" fill="#1D1710" font-family="Georgia, serif" font-size="34">Where learners stall</text>
  <text x="138" y="344" fill="#5C4B3A" font-family="Georgia, serif" font-size="27">letter forms</text>
  <text x="138" y="382" fill="#5C4B3A" font-family="Georgia, serif" font-size="27">sound distinctions</text>
  <text x="448" y="292" fill="#1D1710" font-family="Georgia, serif" font-size="34">What the kit externalizes</text>
  <text x="448" y="344" fill="#5C4B3A" font-family="Georgia, serif" font-size="27">recombination</text>
  <text x="448" y="382" fill="#5C4B3A" font-family="Georgia, serif" font-size="27">pattern recognition</text>
  <text x="758" y="292" fill="#1D1710" font-family="Georgia, serif" font-size="34">What should be tested</text>
  <text x="758" y="344" fill="#5C4B3A" font-family="Georgia, serif" font-size="27">time to comprehension</text>
  <text x="758" y="382" fill="#5C4B3A" font-family="Georgia, serif" font-size="27">transfer into reading</text>
  <path d="M246 468V628H958V468" stroke="#42616C" stroke-width="3" stroke-dasharray="10 10"/>
  <g fill="#42616C">
    <rect x="266" y="520" width="120" height="92" rx="18"/>
    <rect x="428" y="520" width="120" height="92" rx="18"/>
    <rect x="590" y="520" width="120" height="92" rx="18"/>
    <rect x="752" y="520" width="120" height="92" rx="18"/>
  </g>
  <g fill="#F4EEE5" font-family="Georgia, serif" font-size="54">
    <text x="302" y="580">ك</text>
    <text x="468" y="580">ت</text>
    <text x="630" y="580">ب</text>
    <text x="782" y="580">ـَ</text>
  </g>
</svg>

